<svg xmlns="http://www.w3.org/2000/svg" xmlns:xlink="http://www.w3.org/1999/xlink" id="body_4" preserveAspectRatio="xMinYMin meet" viewBox="0 0 793 1121"><defs><clipPath id="1"><path d="M0 841L0 -0.8900146L0 -0.8900146L595.28 -0.8900146L595.28 -0.8900146L595.28 841L595.28 841L0 841z" /></clipPath></defs><g transform="matrix(1.333333 0 0 1.333333 0 0)"><g><g clip-path="url(#1)"><path transform="matrix(1 0 0 -1 0 841)" d="M70.866 787.861L524.409 787.861" stroke="#000000" stroke-width="0.1992" fill="none" /><path transform="matrix(1 0 0 -1 0 841)" d="M79.633 729.585L79.633 732.972" stroke="#0000FF" stroke-width="0.3985" fill="none" /><path transform="matrix(1 0 0 -1 0 841)" d="M79.434 732.773L82.821 732.773" stroke="#0000FF" stroke-width="0.3985" fill="none" /><path transform="matrix(1 0 0 -1 0 841)" d="M82.821 732.773L524.409 732.773" stroke="#0000FF" stroke-width="0.3985" fill="none" /><path transform="matrix(1 0 0 -1 0 841)" d="M524.409 732.773L527.797 732.773" stroke="#0000FF" stroke-width="0.3985" fill="none" /><path transform="matrix(1 0 0 -1 0 841)" d="M527.598 729.585L527.598 732.972" stroke="#0000FF" stroke-width="0.3985" fill="none" /><path transform="matrix(1 0 0 -1 0 841)" d="M79.633 710.805L79.633 729.585" stroke="#0000FF" stroke-width="0.3985" fill="none" /><path transform="matrix(1 0 0 -1 0 841)" d="M527.598 710.805L527.598 729.585" stroke="#0000FF" stroke-width="0.3985" fill="none" /><path transform="matrix(1 0 0 -1 0 841)" d="M79.633 707.418L79.633 710.805" stroke="#0000FF" stroke-width="0.3985" fill="none" /><path transform="matrix(1 0 0 -1 0 841)" d="M79.434 707.617L82.821 707.617" stroke="#0000FF" stroke-width="0.3985" fill="none" /><path transform="matrix(1 0 0 -1 0 841)" d="M82.821 707.617L524.409 707.617" stroke="#0000FF" stroke-width="0.3985" fill="none" /><path transform="matrix(1 0 0 -1 0 841)" d="M524.409 707.617L527.797 707.617" stroke="#0000FF" stroke-width="0.3985" fill="none" /><path transform="matrix(1 0 0 -1 0 841)" d="M527.598 707.418L527.598 710.805" stroke="#0000FF" stroke-width="0.3985" fill="none" /><path transform="matrix(1 0 0 -1 0 841)" d="M79.633 488.898L79.633 492.285" stroke="#0000FF" stroke-width="0.3985" fill="none" /><path transform="matrix(1 0 0 -1 0 841)" d="M79.434 492.086L82.821 492.086" stroke="#0000FF" stroke-width="0.3985" fill="none" /><path transform="matrix(1 0 0 -1 0 841)" d="M82.821 492.086L524.409 492.086" stroke="#0000FF" stroke-width="0.3985" fill="none" /><path transform="matrix(1 0 0 -1 0 841)" d="M524.409 492.086L527.797 492.086" stroke="#0000FF" stroke-width="0.3985" fill="none" /><path transform="matrix(1 0 0 -1 0 841)" d="M527.598 488.898L527.598 492.285" stroke="#0000FF" stroke-width="0.3985" fill="none" /><path transform="matrix(1 0 0 -1 0 841)" d="M79.633 470.118L79.633 488.898" stroke="#0000FF" stroke-width="0.3985" fill="none" /><path transform="matrix(1 0 0 -1 0 841)" d="M527.598 470.118L527.598 488.898" stroke="#0000FF" stroke-width="0.3985" fill="none" /><path transform="matrix(1 0 0 -1 0 841)" d="M79.633 466.731L79.633 470.118" stroke="#0000FF" stroke-width="0.3985" fill="none" /><path transform="matrix(1 0 0 -1 0 841)" d="M79.434 466.93L82.821 466.93" stroke="#0000FF" stroke-width="0.3985" fill="none" /><path transform="matrix(1 0 0 -1 0 841)" d="M82.821 466.93L524.409 466.93" stroke="#0000FF" stroke-width="0.3985" fill="none" /><path transform="matrix(1 0 0 -1 0 841)" d="M524.409 466.93L527.797 466.93" stroke="#0000FF" stroke-width="0.3985" fill="none" /><path transform="matrix(1 0 0 -1 0 841)" d="M527.598 466.731L527.598 470.118" stroke="#0000FF" stroke-width="0.3985" fill="none" /><path transform="matrix(1 0 0 -1 0 841)" d="M79.633 407.334L79.633 410.722" stroke="#0000FF" stroke-width="0.3985" fill="none" /><path transform="matrix(1 0 0 -1 0 841)" d="M79.434 410.523L82.821 410.523" stroke="#0000FF" stroke-width="0.3985" fill="none" /><path transform="matrix(1 0 0 -1 0 841)" d="M82.821 410.523L524.409 410.523" stroke="#0000FF" stroke-width="0.3985" fill="none" /><path transform="matrix(1 0 0 -1 0 841)" d="M524.409 410.523L527.797 410.523" stroke="#0000FF" stroke-width="0.3985" fill="none" /><path transform="matrix(1 0 0 -1 0 841)" d="M527.598 407.334L527.598 410.722" stroke="#0000FF" stroke-width="0.3985" fill="none" /><path transform="matrix(1 0 0 -1 0 841)" d="M79.633 388.555L79.633 407.334" stroke="#0000FF" stroke-width="0.3985" fill="none" /><path transform="matrix(1 0 0 -1 0 841)" d="M527.598 388.555L527.598 407.334" stroke="#0000FF" stroke-width="0.3985" fill="none" /><path transform="matrix(1 0 0 -1 0 841)" d="M79.633 385.168L79.633 388.555" stroke="#0000FF" stroke-width="0.3985" fill="none" /><path transform="matrix(1 0 0 -1 0 841)" d="M79.434 385.367L82.821 385.367" stroke="#0000FF" stroke-width="0.3985" fill="none" /><path transform="matrix(1 0 0 -1 0 841)" d="M82.821 385.367L524.409 385.367" stroke="#0000FF" stroke-width="0.3985" fill="none" /><path transform="matrix(1 0 0 -1 0 841)" d="M524.409 385.367L527.797 385.367" stroke="#0000FF" stroke-width="0.3985" fill="none" /><path transform="matrix(1 0 0 -1 0 841)" d="M527.598 385.168L527.598 388.555" stroke="#0000FF" stroke-width="0.3985" fill="none" /></g></g></g></svg>