<svg xmlns="http://www.w3.org/2000/svg" xmlns:xlink="http://www.w3.org/1999/xlink" id="body_12" preserveAspectRatio="xMinYMin meet" viewBox="0 0 793 1121"><defs><clipPath id="1"><path d="M0 841L0 -0.8900146L0 -0.8900146L595.28 -0.8900146L595.28 -0.8900146L595.28 841L595.28 841L0 841z" /></clipPath></defs><g transform="matrix(1.333333 0 0 1.333333 0 0)"><g><g clip-path="url(#1)"><path transform="matrix(1 0 0 -1 0 841)" d="M70.866 787.861L524.409 787.861" stroke="#000000" stroke-width="0.1992" fill="none" /><path transform="matrix(1 0 0 -1 0 841)" d="M79.633 744.274L79.633 763.054" stroke="#0000FF" stroke-width="0.3985" fill="none" /><path transform="matrix(1 0 0 -1 0 841)" d="M527.598 744.274L527.598 763.054" stroke="#0000FF" stroke-width="0.3985" fill="none" /><path transform="matrix(1 0 0 -1 0 841)" d="M79.633 725.495L79.633 744.274" stroke="#0000FF" stroke-width="0.3985" fill="none" /><path transform="matrix(1 0 0 -1 0 841)" d="M527.598 725.495L527.598 744.274" stroke="#0000FF" stroke-width="0.3985" fill="none" /><path transform="matrix(1 0 0 -1 0 841)" d="M79.633 706.715L79.633 725.495" stroke="#0000FF" stroke-width="0.3985" fill="none" /><path transform="matrix(1 0 0 -1 0 841)" d="M527.598 706.715L527.598 725.495" stroke="#0000FF" stroke-width="0.3985" fill="none" /><path transform="matrix(1 0 0 -1 0 841)" d="M79.633 703.328L79.633 706.715" stroke="#0000FF" stroke-width="0.3985" fill="none" /><path transform="matrix(1 0 0 -1 0 841)" d="M79.434 703.527L82.821 703.527" stroke="#0000FF" stroke-width="0.3985" fill="none" /><path transform="matrix(1 0 0 -1 0 841)" d="M82.821 703.527L524.409 703.527" stroke="#0000FF" stroke-width="0.3985" fill="none" /><path transform="matrix(1 0 0 -1 0 841)" d="M524.409 703.527L527.797 703.527" stroke="#0000FF" stroke-width="0.3985" fill="none" /><path transform="matrix(1 0 0 -1 0 841)" d="M527.598 703.328L527.598 706.715" stroke="#0000FF" stroke-width="0.3985" fill="none" /><path transform="matrix(1 0 0 -1 0 841)" d="M209.865 515.259L385.411 515.259" stroke="#000000" stroke-width="1.9925" fill="none" /><path transform="matrix(1 0 0 -1 0 841)" d="M275.817 495.483L275.817 514.262" stroke="#000000" stroke-width="0.3985" fill="none" /><path transform="matrix(1 0 0 -1 0 841)" d="M319.378 495.483L319.378 514.262" stroke="#000000" stroke-width="0.3985" fill="none" /><path transform="matrix(1 0 0 -1 0 841)" d="M209.865 494.885L385.411 494.885" stroke="#000000" stroke-width="1.1955" fill="none" /><path transform="matrix(1 0 0 -1 0 841)" d="M275.817 475.508L275.817 494.287" stroke="#000000" stroke-width="0.3985" fill="none" /><path transform="matrix(1 0 0 -1 0 841)" d="M319.378 475.508L319.378 494.287" stroke="#000000" stroke-width="0.3985" fill="none" /><path transform="matrix(1 0 0 -1 0 841)" d="M209.865 475.309L276.017 475.309" stroke="#000000" stroke-width="0.3985" fill="none" /><path transform="matrix(1 0 0 -1 0 841)" d="M276.017 475.309L319.577 475.309" stroke="#000000" stroke-width="0.3985" fill="none" /><path transform="matrix(1 0 0 -1 0 841)" d="M319.577 475.309L385.411 475.309" stroke="#000000" stroke-width="0.3985" fill="none" /><path transform="matrix(1 0 0 -1 0 841)" d="M275.817 456.728L275.817 475.508" stroke="#000000" stroke-width="0.3985" fill="none" /><path transform="matrix(1 0 0 -1 0 841)" d="M319.378 456.728L319.378 475.508" stroke="#000000" stroke-width="0.3985" fill="none" /><path transform="matrix(1 0 0 -1 0 841)" d="M209.865 456.529L276.017 456.529" stroke="#000000" stroke-width="0.3985" fill="none" /><path transform="matrix(1 0 0 -1 0 841)" d="M276.017 456.529L319.577 456.529" stroke="#000000" stroke-width="0.3985" fill="none" /><path transform="matrix(1 0 0 -1 0 841)" d="M275.817 437.949L275.817 456.728" stroke="#000000" stroke-width="0.3985" fill="none" /><path transform="matrix(1 0 0 -1 0 841)" d="M319.378 437.949L319.378 456.728" stroke="#000000" stroke-width="0.3985" fill="none" /><path transform="matrix(1 0 0 -1 0 841)" d="M209.865 437.749L276.017 437.749" stroke="#000000" stroke-width="0.3985" fill="none" /><path transform="matrix(1 0 0 -1 0 841)" d="M319.577 437.749L385.411 437.749" stroke="#000000" stroke-width="0.3985" fill="none" /><path transform="matrix(1 0 0 -1 0 841)" d="M275.817 419.169L275.817 437.949" stroke="#000000" stroke-width="0.3985" fill="none" /><path transform="matrix(1 0 0 -1 0 841)" d="M319.378 419.169L319.378 437.949" stroke="#000000" stroke-width="0.3985" fill="none" /><path transform="matrix(1 0 0 -1 0 841)" d="M209.865 418.97L276.017 418.97" stroke="#000000" stroke-width="0.3985" fill="none" /><path transform="matrix(1 0 0 -1 0 841)" d="M319.577 418.97L385.411 418.97" stroke="#000000" stroke-width="0.3985" fill="none" /><path transform="matrix(1 0 0 -1 0 841)" d="M275.817 400.389L275.817 419.169" stroke="#000000" stroke-width="0.3985" fill="none" /><path transform="matrix(1 0 0 -1 0 841)" d="M319.378 400.389L319.378 419.169" stroke="#000000" stroke-width="0.3985" fill="none" /><path transform="matrix(1 0 0 -1 0 841)" d="M209.865 400.19L276.017 400.19" stroke="#000000" stroke-width="0.3985" fill="none" /><path transform="matrix(1 0 0 -1 0 841)" d="M319.577 400.19L385.411 400.19" stroke="#000000" stroke-width="0.3985" fill="none" /><path transform="matrix(1 0 0 -1 0 841)" d="M275.817 381.61L275.817 400.389" stroke="#000000" stroke-width="0.3985" fill="none" /><path transform="matrix(1 0 0 -1 0 841)" d="M319.378 381.61L319.378 400.389" stroke="#000000" stroke-width="0.3985" fill="none" /><path transform="matrix(1 0 0 -1 0 841)" d="M209.865 381.411L276.017 381.411" stroke="#000000" stroke-width="0.3985" fill="none" /><path transform="matrix(1 0 0 -1 0 841)" d="M319.577 381.411L385.411 381.411" stroke="#000000" stroke-width="0.3985" fill="none" /><path transform="matrix(1 0 0 -1 0 841)" d="M275.817 362.83L275.817 381.61" stroke="#000000" stroke-width="0.3985" fill="none" /><path transform="matrix(1 0 0 -1 0 841)" d="M319.378 362.83L319.378 381.61" stroke="#000000" stroke-width="0.3985" fill="none" /><path transform="matrix(1 0 0 -1 0 841)" d="M209.865 362.631L276.017 362.631" stroke="#000000" stroke-width="0.3985" fill="none" /><path transform="matrix(1 0 0 -1 0 841)" d="M319.577 362.631L385.411 362.631" stroke="#000000" stroke-width="0.3985" fill="none" /><path transform="matrix(1 0 0 -1 0 841)" d="M275.817 344.051L275.817 362.83" stroke="#000000" stroke-width="0.3985" fill="none" /><path transform="matrix(1 0 0 -1 0 841)" d="M319.378 344.051L319.378 362.83" stroke="#000000" stroke-width="0.3985" fill="none" /><path transform="matrix(1 0 0 -1 0 841)" d="M209.865 343.851L276.017 343.851" stroke="#000000" stroke-width="0.3985" fill="none" /><path transform="matrix(1 0 0 -1 0 841)" d="M319.577 343.851L385.411 343.851" stroke="#000000" stroke-width="0.3985" fill="none" /><path transform="matrix(1 0 0 -1 0 841)" d="M275.817 325.271L275.817 344.051" stroke="#000000" stroke-width="0.3985" fill="none" /><path transform="matrix(1 0 0 -1 0 841)" d="M319.378 325.271L319.378 344.051" stroke="#000000" stroke-width="0.3985" fill="none" /><path transform="matrix(1 0 0 -1 0 841)" d="M209.865 324.275L385.411 324.275" stroke="#000000" stroke-width="1.9925" fill="none" /></g></g></g></svg>