<svg xmlns="http://www.w3.org/2000/svg" xmlns:xlink="http://www.w3.org/1999/xlink" id="body_14" preserveAspectRatio="xMinYMin meet" viewBox="0 0 793 1121"><defs><clipPath id="1"><path d="M0 841L0 -0.8900146L0 -0.8900146L595.28 -0.8900146L595.28 -0.8900146L595.28 841L595.28 841L0 841z" /></clipPath></defs><g transform="matrix(1.333333 0 0 1.333333 0 0)"><g><g clip-path="url(#1)"><path transform="matrix(1 0 0 -1 0 841)" d="M70.866 787.861L524.409 787.861" stroke="#000000" stroke-width="0.1992" fill="none" /><path transform="matrix(1 0 0 -1 0 841)" d="M79.633 514.123L79.633 517.51" stroke="#0000FF" stroke-width="0.3985" fill="none" /><path transform="matrix(1 0 0 -1 0 841)" d="M79.434 517.311L82.821 517.311" stroke="#0000FF" stroke-width="0.3985" fill="none" /><path transform="matrix(1 0 0 -1 0 841)" d="M82.821 517.311L524.409 517.311" stroke="#0000FF" stroke-width="0.3985" fill="none" /><path transform="matrix(1 0 0 -1 0 841)" d="M524.409 517.311L527.797 517.311" stroke="#0000FF" stroke-width="0.3985" fill="none" /><path transform="matrix(1 0 0 -1 0 841)" d="M527.598 514.123L527.598 517.51" stroke="#0000FF" stroke-width="0.3985" fill="none" /><path transform="matrix(1 0 0 -1 0 841)" d="M79.633 495.343L79.633 514.123" stroke="#0000FF" stroke-width="0.3985" fill="none" /><path transform="matrix(1 0 0 -1 0 841)" d="M527.598 495.343L527.598 514.123" stroke="#0000FF" stroke-width="0.3985" fill="none" /><path transform="matrix(1 0 0 -1 0 841)" d="M79.633 476.564L79.633 495.343" stroke="#0000FF" stroke-width="0.3985" fill="none" /><path transform="matrix(1 0 0 -1 0 841)" d="M527.598 476.564L527.598 495.343" stroke="#0000FF" stroke-width="0.3985" fill="none" /><path transform="matrix(1 0 0 -1 0 841)" d="M79.633 473.176L79.633 476.564" stroke="#0000FF" stroke-width="0.3985" fill="none" /><path transform="matrix(1 0 0 -1 0 841)" d="M79.434 473.376L82.821 473.376" stroke="#0000FF" stroke-width="0.3985" fill="none" /><path transform="matrix(1 0 0 -1 0 841)" d="M82.821 473.376L524.409 473.376" stroke="#0000FF" stroke-width="0.3985" fill="none" /><path transform="matrix(1 0 0 -1 0 841)" d="M524.409 473.376L527.797 473.376" stroke="#0000FF" stroke-width="0.3985" fill="none" /><path transform="matrix(1 0 0 -1 0 841)" d="M527.598 473.176L527.598 476.564" stroke="#0000FF" stroke-width="0.3985" fill="none" /><path transform="matrix(1 0 0 -1 0 841)" d="M79.633 413.78L79.633 417.167" stroke="#0000FF" stroke-width="0.3985" fill="none" /><path transform="matrix(1 0 0 -1 0 841)" d="M79.434 416.968L82.821 416.968" stroke="#0000FF" stroke-width="0.3985" fill="none" /><path transform="matrix(1 0 0 -1 0 841)" d="M82.821 416.968L524.409 416.968" stroke="#0000FF" stroke-width="0.3985" fill="none" /><path transform="matrix(1 0 0 -1 0 841)" d="M524.409 416.968L527.797 416.968" stroke="#0000FF" stroke-width="0.3985" fill="none" /><path transform="matrix(1 0 0 -1 0 841)" d="M527.598 413.78L527.598 417.167" stroke="#0000FF" stroke-width="0.3985" fill="none" /><path transform="matrix(1 0 0 -1 0 841)" d="M79.633 395L79.633 413.78" stroke="#0000FF" stroke-width="0.3985" fill="none" /><path transform="matrix(1 0 0 -1 0 841)" d="M527.598 395L527.598 413.78" stroke="#0000FF" stroke-width="0.3985" fill="none" /><path transform="matrix(1 0 0 -1 0 841)" d="M79.633 376.22L79.633 395" stroke="#0000FF" stroke-width="0.3985" fill="none" /><path transform="matrix(1 0 0 -1 0 841)" d="M527.598 376.22L527.598 395" stroke="#0000FF" stroke-width="0.3985" fill="none" /><path transform="matrix(1 0 0 -1 0 841)" d="M79.633 357.441L79.633 376.22" stroke="#0000FF" stroke-width="0.3985" fill="none" /><path transform="matrix(1 0 0 -1 0 841)" d="M527.598 357.441L527.598 376.22" stroke="#0000FF" stroke-width="0.3985" fill="none" /><path transform="matrix(1 0 0 -1 0 841)" d="M79.633 338.661L79.633 357.441" stroke="#0000FF" stroke-width="0.3985" fill="none" /><path transform="matrix(1 0 0 -1 0 841)" d="M527.598 338.661L527.598 357.441" stroke="#0000FF" stroke-width="0.3985" fill="none" /><path transform="matrix(1 0 0 -1 0 841)" d="M79.633 335.274L79.633 338.661" stroke="#0000FF" stroke-width="0.3985" fill="none" /><path transform="matrix(1 0 0 -1 0 841)" d="M79.434 335.473L82.821 335.473" stroke="#0000FF" stroke-width="0.3985" fill="none" /><path transform="matrix(1 0 0 -1 0 841)" d="M82.821 335.473L524.409 335.473" stroke="#0000FF" stroke-width="0.3985" fill="none" /><path transform="matrix(1 0 0 -1 0 841)" d="M524.409 335.473L527.797 335.473" stroke="#0000FF" stroke-width="0.3985" fill="none" /><path transform="matrix(1 0 0 -1 0 841)" d="M527.598 335.274L527.598 338.661" stroke="#0000FF" stroke-width="0.3985" fill="none" /></g></g></g></svg>