<svg xmlns="http://www.w3.org/2000/svg" xmlns:xlink="http://www.w3.org/1999/xlink" id="body_11" preserveAspectRatio="xMinYMin meet" viewBox="0 0 793 1121"><defs><clipPath id="1"><path d="M0 841L0 -0.8900146L0 -0.8900146L595.28 -0.8900146L595.28 -0.8900146L595.28 841L595.28 841L0 841z" /></clipPath></defs><g transform="matrix(1.333333 0 0 1.333333 0 0)"><g><g clip-path="url(#1)"><path transform="matrix(1 0 0 -1 0 841)" d="M70.866 787.861L524.409 787.861" stroke="#000000" stroke-width="0.1992" fill="none" /><path transform="matrix(1 0 0 -1 0 841)" d="M79.633 744.274L79.633 763.054" stroke="#0000FF" stroke-width="0.3985" fill="none" /><path transform="matrix(1 0 0 -1 0 841)" d="M527.598 744.274L527.598 763.054" stroke="#0000FF" stroke-width="0.3985" fill="none" /><path transform="matrix(1 0 0 -1 0 841)" d="M79.633 725.495L79.633 744.274" stroke="#0000FF" stroke-width="0.3985" fill="none" /><path transform="matrix(1 0 0 -1 0 841)" d="M527.598 725.495L527.598 744.274" stroke="#0000FF" stroke-width="0.3985" fill="none" /><path transform="matrix(1 0 0 -1 0 841)" d="M79.633 706.715L79.633 725.495" stroke="#0000FF" stroke-width="0.3985" fill="none" /><path transform="matrix(1 0 0 -1 0 841)" d="M527.598 706.715L527.598 725.495" stroke="#0000FF" stroke-width="0.3985" fill="none" /><path transform="matrix(1 0 0 -1 0 841)" d="M79.633 703.328L79.633 706.715" stroke="#0000FF" stroke-width="0.3985" fill="none" /><path transform="matrix(1 0 0 -1 0 841)" d="M79.434 703.527L82.821 703.527" stroke="#0000FF" stroke-width="0.3985" fill="none" /><path transform="matrix(1 0 0 -1 0 841)" d="M82.821 703.527L524.409 703.527" stroke="#0000FF" stroke-width="0.3985" fill="none" /><path transform="matrix(1 0 0 -1 0 841)" d="M524.409 703.527L527.797 703.527" stroke="#0000FF" stroke-width="0.3985" fill="none" /><path transform="matrix(1 0 0 -1 0 841)" d="M527.598 703.328L527.598 706.715" stroke="#0000FF" stroke-width="0.3985" fill="none" /><path transform="matrix(1 0 0 -1 0 841)" d="M79.633 466.028L79.633 469.416" stroke="#0000FF" stroke-width="0.3985" fill="none" /><path transform="matrix(1 0 0 -1 0 841)" d="M79.434 469.216L82.821 469.216" stroke="#0000FF" stroke-width="0.3985" fill="none" /><path transform="matrix(1 0 0 -1 0 841)" d="M82.821 469.216L524.409 469.216" stroke="#0000FF" stroke-width="0.3985" fill="none" /><path transform="matrix(1 0 0 -1 0 841)" d="M524.409 469.216L527.797 469.216" stroke="#0000FF" stroke-width="0.3985" fill="none" /><path transform="matrix(1 0 0 -1 0 841)" d="M527.598 466.028L527.598 469.416" stroke="#0000FF" stroke-width="0.3985" fill="none" /><path transform="matrix(1 0 0 -1 0 841)" d="M79.633 447.249L79.633 466.028" stroke="#0000FF" stroke-width="0.3985" fill="none" /><path transform="matrix(1 0 0 -1 0 841)" d="M527.598 447.249L527.598 466.028" stroke="#0000FF" stroke-width="0.3985" fill="none" /><path transform="matrix(1 0 0 -1 0 841)" d="M79.633 428.469L79.633 447.249" stroke="#0000FF" stroke-width="0.3985" fill="none" /><path transform="matrix(1 0 0 -1 0 841)" d="M527.598 428.469L527.598 447.249" stroke="#0000FF" stroke-width="0.3985" fill="none" /><path transform="matrix(1 0 0 -1 0 841)" d="M79.633 409.69L79.633 428.469" stroke="#0000FF" stroke-width="0.3985" fill="none" /><path transform="matrix(1 0 0 -1 0 841)" d="M527.598 409.69L527.598 428.469" stroke="#0000FF" stroke-width="0.3985" fill="none" /><path transform="matrix(1 0 0 -1 0 841)" d="M79.633 390.91L79.633 409.69" stroke="#0000FF" stroke-width="0.3985" fill="none" /><path transform="matrix(1 0 0 -1 0 841)" d="M527.598 390.91L527.598 409.69" stroke="#0000FF" stroke-width="0.3985" fill="none" /><path transform="matrix(1 0 0 -1 0 841)" d="M79.633 372.13L79.633 390.91" stroke="#0000FF" stroke-width="0.3985" fill="none" /><path transform="matrix(1 0 0 -1 0 841)" d="M527.598 372.13L527.598 390.91" stroke="#0000FF" stroke-width="0.3985" fill="none" /><path transform="matrix(1 0 0 -1 0 841)" d="M79.633 353.351L79.633 372.13" stroke="#0000FF" stroke-width="0.3985" fill="none" /><path transform="matrix(1 0 0 -1 0 841)" d="M527.598 353.351L527.598 372.13" stroke="#0000FF" stroke-width="0.3985" fill="none" /><path transform="matrix(1 0 0 -1 0 841)" d="M79.633 334.571L79.633 353.351" stroke="#0000FF" stroke-width="0.3985" fill="none" /><path transform="matrix(1 0 0 -1 0 841)" d="M527.598 334.571L527.598 353.351" stroke="#0000FF" stroke-width="0.3985" fill="none" /><path transform="matrix(1 0 0 -1 0 841)" d="M79.633 315.792L79.633 334.571" stroke="#0000FF" stroke-width="0.3985" fill="none" /><path transform="matrix(1 0 0 -1 0 841)" d="M527.598 315.792L527.598 334.571" stroke="#0000FF" stroke-width="0.3985" fill="none" /><path transform="matrix(1 0 0 -1 0 841)" d="M79.633 297.012L79.633 315.792" stroke="#0000FF" stroke-width="0.3985" fill="none" /><path transform="matrix(1 0 0 -1 0 841)" d="M527.598 297.012L527.598 315.792" stroke="#0000FF" stroke-width="0.3985" fill="none" /><path transform="matrix(1 0 0 -1 0 841)" d="M79.633 278.232L79.633 297.012" stroke="#0000FF" stroke-width="0.3985" fill="none" /><path transform="matrix(1 0 0 -1 0 841)" d="M527.598 278.232L527.598 297.012" stroke="#0000FF" stroke-width="0.3985" fill="none" /><path transform="matrix(1 0 0 -1 0 841)" d="M79.633 259.453L79.633 278.232" stroke="#0000FF" stroke-width="0.3985" fill="none" /><path transform="matrix(1 0 0 -1 0 841)" d="M527.598 259.453L527.598 278.232" stroke="#0000FF" stroke-width="0.3985" fill="none" /><path transform="matrix(1 0 0 -1 0 841)" d="M79.633 256.066L79.633 259.453" stroke="#0000FF" stroke-width="0.3985" fill="none" /><path transform="matrix(1 0 0 -1 0 841)" d="M79.434 256.265L82.821 256.265" stroke="#0000FF" stroke-width="0.3985" fill="none" /><path transform="matrix(1 0 0 -1 0 841)" d="M82.821 256.265L524.409 256.265" stroke="#0000FF" stroke-width="0.3985" fill="none" /><path transform="matrix(1 0 0 -1 0 841)" d="M524.409 256.265L527.797 256.265" stroke="#0000FF" stroke-width="0.3985" fill="none" /><path transform="matrix(1 0 0 -1 0 841)" d="M527.598 256.066L527.598 259.453" stroke="#0000FF" stroke-width="0.3985" fill="none" /><path transform="matrix(1 0 0 -1 0 841)" d="M79.633 196.669L79.633 200.056" stroke="#0000FF" stroke-width="0.3985" fill="none" /><path transform="matrix(1 0 0 -1 0 841)" d="M79.434 199.857L82.821 199.857" stroke="#0000FF" stroke-width="0.3985" fill="none" /><path transform="matrix(1 0 0 -1 0 841)" d="M82.821 199.857L524.409 199.857" stroke="#0000FF" stroke-width="0.3985" fill="none" /><path transform="matrix(1 0 0 -1 0 841)" d="M524.409 199.857L527.797 199.857" stroke="#0000FF" stroke-width="0.3985" fill="none" /><path transform="matrix(1 0 0 -1 0 841)" d="M527.598 196.669L527.598 200.056" stroke="#0000FF" stroke-width="0.3985" fill="none" /><path transform="matrix(1 0 0 -1 0 841)" d="M79.633 177.889L79.633 196.669" stroke="#0000FF" stroke-width="0.3985" fill="none" /><path transform="matrix(1 0 0 -1 0 841)" d="M527.598 177.889L527.598 196.669" stroke="#0000FF" stroke-width="0.3985" fill="none" /><path transform="matrix(1 0 0 -1 0 841)" d="M79.633 159.11L79.633 177.889" stroke="#0000FF" stroke-width="0.3985" fill="none" /><path transform="matrix(1 0 0 -1 0 841)" d="M527.598 159.11L527.598 177.889" stroke="#0000FF" stroke-width="0.3985" fill="none" /><path transform="matrix(1 0 0 -1 0 841)" d="M79.633 140.33L79.633 159.11" stroke="#0000FF" stroke-width="0.3985" fill="none" /><path transform="matrix(1 0 0 -1 0 841)" d="M527.598 140.33L527.598 159.11" stroke="#0000FF" stroke-width="0.3985" fill="none" /><path transform="matrix(1 0 0 -1 0 841)" d="M79.633 121.55L79.633 140.33" stroke="#0000FF" stroke-width="0.3985" fill="none" /><path transform="matrix(1 0 0 -1 0 841)" d="M527.598 121.55L527.598 140.33" stroke="#0000FF" stroke-width="0.3985" fill="none" /><path transform="matrix(1 0 0 -1 0 841)" d="M79.633 102.771L79.633 121.55" stroke="#0000FF" stroke-width="0.3985" fill="none" /><path transform="matrix(1 0 0 -1 0 841)" d="M527.598 102.771L527.598 121.55" stroke="#0000FF" stroke-width="0.3985" fill="none" /><path transform="matrix(1 0 0 -1 0 841)" d="M79.633 83.99103L79.633 102.771" stroke="#0000FF" stroke-width="0.3985" fill="none" /><path transform="matrix(1 0 0 -1 0 841)" d="M527.598 83.99103L527.598 102.771" stroke="#0000FF" stroke-width="0.3985" fill="none" /><path transform="matrix(1 0 0 -1 0 841)" d="M79.633 65.21204L79.633 83.99103" stroke="#0000FF" stroke-width="0.3985" fill="none" /><path transform="matrix(1 0 0 -1 0 841)" d="M527.598 65.21204L527.598 83.99103" stroke="#0000FF" stroke-width="0.3985" fill="none" /></g></g></g></svg>