<svg xmlns="http://www.w3.org/2000/svg" xmlns:xlink="http://www.w3.org/1999/xlink" id="body_8" preserveAspectRatio="xMinYMin meet" viewBox="0 0 793 1121"><defs><clipPath id="1"><path d="M0 841L0 -0.8900146L0 -0.8900146L595.28 -0.8900146L595.28 -0.8900146L595.28 841L595.28 841L0 841z" /></clipPath></defs><g transform="matrix(1.333333 0 0 1.333333 0 0)"><g><g clip-path="url(#1)"><path transform="matrix(1 0 0 -1 0 841)" d="M70.866 787.861L524.409 787.861" stroke="#000000" stroke-width="0.1992" fill="none" /><path transform="matrix(1 0 0 -1 0 841)" d="M125.318 342.537L469.957 342.537" stroke="#000000" stroke-width="1.9925" fill="none" /><path transform="matrix(1 0 0 -1 0 841)" d="M188.115 322.761L188.115 341.541" stroke="#000000" stroke-width="0.3985" fill="none" /><path transform="matrix(1 0 0 -1 0 841)" d="M241.744 322.761L241.744 341.541" stroke="#000000" stroke-width="0.3985" fill="none" /><path transform="matrix(1 0 0 -1 0 841)" d="M303.62 322.761L303.62 341.541" stroke="#000000" stroke-width="0.3985" fill="none" /><path transform="matrix(1 0 0 -1 0 841)" d="M125.318 322.163L469.957 322.163" stroke="#000000" stroke-width="1.1955" fill="none" /><path transform="matrix(1 0 0 -1 0 841)" d="M188.115 302.786L188.115 321.566" stroke="#000000" stroke-width="0.3985" fill="none" /><path transform="matrix(1 0 0 -1 0 841)" d="M241.744 302.786L241.744 321.566" stroke="#000000" stroke-width="0.3985" fill="none" /><path transform="matrix(1 0 0 -1 0 841)" d="M303.62 302.786L303.62 321.566" stroke="#000000" stroke-width="0.3985" fill="none" /><path transform="matrix(1 0 0 -1 0 841)" d="M125.318 302.587L188.314 302.587" stroke="#000000" stroke-width="0.3985" fill="none" /><path transform="matrix(1 0 0 -1 0 841)" d="M188.314 302.587L241.943 302.587" stroke="#000000" stroke-width="0.3985" fill="none" /><path transform="matrix(1 0 0 -1 0 841)" d="M241.943 302.587L303.819 302.587" stroke="#000000" stroke-width="0.3985" fill="none" /><path transform="matrix(1 0 0 -1 0 841)" d="M188.115 284.006L188.115 302.786" stroke="#000000" stroke-width="0.3985" fill="none" /><path transform="matrix(1 0 0 -1 0 841)" d="M241.744 284.006L241.744 302.786" stroke="#000000" stroke-width="0.3985" fill="none" /><path transform="matrix(1 0 0 -1 0 841)" d="M303.62 284.006L303.62 302.786" stroke="#000000" stroke-width="0.3985" fill="none" /><path transform="matrix(1 0 0 -1 0 841)" d="M125.318 283.807L188.314 283.807" stroke="#000000" stroke-width="0.3985" fill="none" /><path transform="matrix(1 0 0 -1 0 841)" d="M188.314 283.807L241.943 283.807" stroke="#000000" stroke-width="0.3985" fill="none" /><path transform="matrix(1 0 0 -1 0 841)" d="M241.943 283.807L303.819 283.807" stroke="#000000" stroke-width="0.3985" fill="none" /><path transform="matrix(1 0 0 -1 0 841)" d="M188.115 265.227L188.115 284.006" stroke="#000000" stroke-width="0.3985" fill="none" /><path transform="matrix(1 0 0 -1 0 841)" d="M241.744 265.227L241.744 284.006" stroke="#000000" stroke-width="0.3985" fill="none" /><path transform="matrix(1 0 0 -1 0 841)" d="M303.62 265.227L303.62 284.006" stroke="#000000" stroke-width="0.3985" fill="none" /><path transform="matrix(1 0 0 -1 0 841)" d="M125.318 265.028L188.314 265.028" stroke="#000000" stroke-width="0.3985" fill="none" /><path transform="matrix(1 0 0 -1 0 841)" d="M188.314 265.028L241.943 265.028" stroke="#000000" stroke-width="0.3985" fill="none" /><path transform="matrix(1 0 0 -1 0 841)" d="M241.943 265.028L303.819 265.028" stroke="#000000" stroke-width="0.3985" fill="none" /><path transform="matrix(1 0 0 -1 0 841)" d="M303.819 265.028L469.957 265.028" stroke="#000000" stroke-width="0.3985" fill="none" /><path transform="matrix(1 0 0 -1 0 841)" d="M188.115 246.447L188.115 265.227" stroke="#000000" stroke-width="0.3985" fill="none" /><path transform="matrix(1 0 0 -1 0 841)" d="M241.744 246.447L241.744 265.227" stroke="#000000" stroke-width="0.3985" fill="none" /><path transform="matrix(1 0 0 -1 0 841)" d="M303.62 246.447L303.62 265.227" stroke="#000000" stroke-width="0.3985" fill="none" /><path transform="matrix(1 0 0 -1 0 841)" d="M125.318 246.248L188.314 246.248" stroke="#000000" stroke-width="0.3985" fill="none" /><path transform="matrix(1 0 0 -1 0 841)" d="M303.819 246.248L469.957 246.248" stroke="#000000" stroke-width="0.3985" fill="none" /><path transform="matrix(1 0 0 -1 0 841)" d="M188.115 227.668L188.115 246.447" stroke="#000000" stroke-width="0.3985" fill="none" /><path transform="matrix(1 0 0 -1 0 841)" d="M241.744 227.668L241.744 246.447" stroke="#000000" stroke-width="0.3985" fill="none" /><path transform="matrix(1 0 0 -1 0 841)" d="M303.62 227.668L303.62 246.447" stroke="#000000" stroke-width="0.3985" fill="none" /><path transform="matrix(1 0 0 -1 0 841)" d="M125.318 227.468L188.314 227.468" stroke="#000000" stroke-width="0.3985" fill="none" /><path transform="matrix(1 0 0 -1 0 841)" d="M241.943 227.468L303.819 227.468" stroke="#000000" stroke-width="0.3985" fill="none" /><path transform="matrix(1 0 0 -1 0 841)" d="M303.819 227.468L469.957 227.468" stroke="#000000" stroke-width="0.3985" fill="none" /><path transform="matrix(1 0 0 -1 0 841)" d="M188.115 208.888L188.115 227.668" stroke="#000000" stroke-width="0.3985" fill="none" /><path transform="matrix(1 0 0 -1 0 841)" d="M241.744 208.888L241.744 227.668" stroke="#000000" stroke-width="0.3985" fill="none" /><path transform="matrix(1 0 0 -1 0 841)" d="M303.62 208.888L303.62 227.668" stroke="#000000" stroke-width="0.3985" fill="none" /><path transform="matrix(1 0 0 -1 0 841)" d="M125.318 208.689L188.314 208.689" stroke="#000000" stroke-width="0.3985" fill="none" /><path transform="matrix(1 0 0 -1 0 841)" d="M303.819 208.689L469.957 208.689" stroke="#000000" stroke-width="0.3985" fill="none" /><path transform="matrix(1 0 0 -1 0 841)" d="M188.115 190.108L188.115 208.888" stroke="#000000" stroke-width="0.3985" fill="none" /><path transform="matrix(1 0 0 -1 0 841)" d="M241.744 190.108L241.744 208.888" stroke="#000000" stroke-width="0.3985" fill="none" /><path transform="matrix(1 0 0 -1 0 841)" d="M303.62 190.108L303.62 208.888" stroke="#000000" stroke-width="0.3985" fill="none" /><path transform="matrix(1 0 0 -1 0 841)" d="M125.318 189.112L469.957 189.112" stroke="#000000" stroke-width="1.9925" fill="none" /></g></g></g></svg>