<svg xmlns="http://www.w3.org/2000/svg" xmlns:xlink="http://www.w3.org/1999/xlink" id="body_10" preserveAspectRatio="xMinYMin meet" viewBox="0 0 793 1121"><defs><clipPath id="1"><path d="M0 841L0 -0.8900146L0 -0.8900146L595.28 -0.8900146L595.28 -0.8900146L595.28 841L595.28 841L0 841z" /></clipPath></defs><g transform="matrix(1.333333 0 0 1.333333 0 0)"><g><g clip-path="url(#1)"><path transform="matrix(1 0 0 -1 0 841)" d="M70.866 787.861L524.409 787.861" stroke="#000000" stroke-width="0.1992" fill="none" /><path transform="matrix(1 0 0 -1 0 841)" d="M79.633 729.585L79.633 732.972" stroke="#0000FF" stroke-width="0.3985" fill="none" /><path transform="matrix(1 0 0 -1 0 841)" d="M79.434 732.773L82.821 732.773" stroke="#0000FF" stroke-width="0.3985" fill="none" /><path transform="matrix(1 0 0 -1 0 841)" d="M82.821 732.773L524.409 732.773" stroke="#0000FF" stroke-width="0.3985" fill="none" /><path transform="matrix(1 0 0 -1 0 841)" d="M524.409 732.773L527.797 732.773" stroke="#0000FF" stroke-width="0.3985" fill="none" /><path transform="matrix(1 0 0 -1 0 841)" d="M527.598 729.585L527.598 732.972" stroke="#0000FF" stroke-width="0.3985" fill="none" /><path transform="matrix(1 0 0 -1 0 841)" d="M79.633 710.805L79.633 729.585" stroke="#0000FF" stroke-width="0.3985" fill="none" /><path transform="matrix(1 0 0 -1 0 841)" d="M527.598 710.805L527.598 729.585" stroke="#0000FF" stroke-width="0.3985" fill="none" /><path transform="matrix(1 0 0 -1 0 841)" d="M79.633 692.025L79.633 710.805" stroke="#0000FF" stroke-width="0.3985" fill="none" /><path transform="matrix(1 0 0 -1 0 841)" d="M527.598 692.025L527.598 710.805" stroke="#0000FF" stroke-width="0.3985" fill="none" /><path transform="matrix(1 0 0 -1 0 841)" d="M79.633 688.638L79.633 692.025" stroke="#0000FF" stroke-width="0.3985" fill="none" /><path transform="matrix(1 0 0 -1 0 841)" d="M79.434 688.837L82.821 688.837" stroke="#0000FF" stroke-width="0.3985" fill="none" /><path transform="matrix(1 0 0 -1 0 841)" d="M82.821 688.837L524.409 688.837" stroke="#0000FF" stroke-width="0.3985" fill="none" /><path transform="matrix(1 0 0 -1 0 841)" d="M524.409 688.837L527.797 688.837" stroke="#0000FF" stroke-width="0.3985" fill="none" /><path transform="matrix(1 0 0 -1 0 841)" d="M527.598 688.638L527.598 692.025" stroke="#0000FF" stroke-width="0.3985" fill="none" /><path transform="matrix(1 0 0 -1 0 841)" d="M154.521 416.102L440.755 416.102" stroke="#000000" stroke-width="1.9925" fill="none" /><path transform="matrix(1 0 0 -1 0 841)" d="M220.473 396.326L220.473 415.105" stroke="#000000" stroke-width="0.3985" fill="none" /><path transform="matrix(1 0 0 -1 0 841)" d="M263.005 396.326L263.005 415.105" stroke="#000000" stroke-width="0.3985" fill="none" /><path transform="matrix(1 0 0 -1 0 841)" d="M324.881 396.326L324.881 415.105" stroke="#000000" stroke-width="0.3985" fill="none" /><path transform="matrix(1 0 0 -1 0 841)" d="M386.757 396.326L386.757 415.105" stroke="#000000" stroke-width="0.3985" fill="none" /><path transform="matrix(1 0 0 -1 0 841)" d="M154.521 395.728L440.755 395.728" stroke="#000000" stroke-width="1.1955" fill="none" /><path transform="matrix(1 0 0 -1 0 841)" d="M220.473 376.351L220.473 395.13" stroke="#000000" stroke-width="0.3985" fill="none" /><path transform="matrix(1 0 0 -1 0 841)" d="M263.005 376.351L263.005 395.13" stroke="#000000" stroke-width="0.3985" fill="none" /><path transform="matrix(1 0 0 -1 0 841)" d="M324.881 376.351L324.881 395.13" stroke="#000000" stroke-width="0.3985" fill="none" /><path transform="matrix(1 0 0 -1 0 841)" d="M386.757 376.351L386.757 395.13" stroke="#000000" stroke-width="0.3985" fill="none" /><path transform="matrix(1 0 0 -1 0 841)" d="M154.521 376.151L220.673 376.151" stroke="#000000" stroke-width="0.3985" fill="none" /><path transform="matrix(1 0 0 -1 0 841)" d="M220.673 376.151L263.205 376.151" stroke="#000000" stroke-width="0.3985" fill="none" /><path transform="matrix(1 0 0 -1 0 841)" d="M263.205 376.151L325.081 376.151" stroke="#000000" stroke-width="0.3985" fill="none" /><path transform="matrix(1 0 0 -1 0 841)" d="M325.081 376.151L386.957 376.151" stroke="#000000" stroke-width="0.3985" fill="none" /><path transform="matrix(1 0 0 -1 0 841)" d="M220.473 357.571L220.473 376.351" stroke="#000000" stroke-width="0.3985" fill="none" /><path transform="matrix(1 0 0 -1 0 841)" d="M263.005 357.571L263.005 376.351" stroke="#000000" stroke-width="0.3985" fill="none" /><path transform="matrix(1 0 0 -1 0 841)" d="M324.881 357.571L324.881 376.351" stroke="#000000" stroke-width="0.3985" fill="none" /><path transform="matrix(1 0 0 -1 0 841)" d="M386.757 357.571L386.757 376.351" stroke="#000000" stroke-width="0.3985" fill="none" /><path transform="matrix(1 0 0 -1 0 841)" d="M154.521 357.372L220.673 357.372" stroke="#000000" stroke-width="0.3985" fill="none" /><path transform="matrix(1 0 0 -1 0 841)" d="M263.205 357.372L325.081 357.372" stroke="#000000" stroke-width="0.3985" fill="none" /><path transform="matrix(1 0 0 -1 0 841)" d="M220.473 338.791L220.473 357.571" stroke="#000000" stroke-width="0.3985" fill="none" /><path transform="matrix(1 0 0 -1 0 841)" d="M263.005 338.791L263.005 357.571" stroke="#000000" stroke-width="0.3985" fill="none" /><path transform="matrix(1 0 0 -1 0 841)" d="M324.881 338.791L324.881 357.571" stroke="#000000" stroke-width="0.3985" fill="none" /><path transform="matrix(1 0 0 -1 0 841)" d="M386.757 338.791L386.757 357.571" stroke="#000000" stroke-width="0.3985" fill="none" /><path transform="matrix(1 0 0 -1 0 841)" d="M154.521 338.592L220.673 338.592" stroke="#000000" stroke-width="0.3985" fill="none" /><path transform="matrix(1 0 0 -1 0 841)" d="M263.205 338.592L325.081 338.592" stroke="#000000" stroke-width="0.3985" fill="none" /><path transform="matrix(1 0 0 -1 0 841)" d="M325.081 338.592L386.957 338.592" stroke="#000000" stroke-width="0.3985" fill="none" /><path transform="matrix(1 0 0 -1 0 841)" d="M220.473 320.012L220.473 338.791" stroke="#000000" stroke-width="0.3985" fill="none" /><path transform="matrix(1 0 0 -1 0 841)" d="M263.005 320.012L263.005 338.791" stroke="#000000" stroke-width="0.3985" fill="none" /><path transform="matrix(1 0 0 -1 0 841)" d="M324.881 320.012L324.881 338.791" stroke="#000000" stroke-width="0.3985" fill="none" /><path transform="matrix(1 0 0 -1 0 841)" d="M386.757 320.012L386.757 338.791" stroke="#000000" stroke-width="0.3985" fill="none" /><path transform="matrix(1 0 0 -1 0 841)" d="M154.521 319.813L220.673 319.813" stroke="#000000" stroke-width="0.3985" fill="none" /><path transform="matrix(1 0 0 -1 0 841)" d="M220.673 319.813L263.205 319.813" stroke="#000000" stroke-width="0.3985" fill="none" /><path transform="matrix(1 0 0 -1 0 841)" d="M263.205 319.813L325.081 319.813" stroke="#000000" stroke-width="0.3985" fill="none" /><path transform="matrix(1 0 0 -1 0 841)" d="M325.081 319.813L386.957 319.813" stroke="#000000" stroke-width="0.3985" fill="none" /><path transform="matrix(1 0 0 -1 0 841)" d="M220.473 301.232L220.473 320.012" stroke="#000000" stroke-width="0.3985" fill="none" /><path transform="matrix(1 0 0 -1 0 841)" d="M263.005 301.232L263.005 320.012" stroke="#000000" stroke-width="0.3985" fill="none" /><path transform="matrix(1 0 0 -1 0 841)" d="M324.881 301.232L324.881 320.012" stroke="#000000" stroke-width="0.3985" fill="none" /><path transform="matrix(1 0 0 -1 0 841)" d="M386.757 301.232L386.757 320.012" stroke="#000000" stroke-width="0.3985" fill="none" /><path transform="matrix(1 0 0 -1 0 841)" d="M154.521 301.033L220.673 301.033" stroke="#000000" stroke-width="0.3985" fill="none" /><path transform="matrix(1 0 0 -1 0 841)" d="M220.673 301.033L263.205 301.033" stroke="#000000" stroke-width="0.3985" fill="none" /><path transform="matrix(1 0 0 -1 0 841)" d="M386.957 301.033L440.755 301.033" stroke="#000000" stroke-width="0.3985" fill="none" /><path transform="matrix(1 0 0 -1 0 841)" d="M220.473 282.453L220.473 301.232" stroke="#000000" stroke-width="0.3985" fill="none" /><path transform="matrix(1 0 0 -1 0 841)" d="M263.005 282.453L263.005 301.232" stroke="#000000" stroke-width="0.3985" fill="none" /><path transform="matrix(1 0 0 -1 0 841)" d="M324.881 282.453L324.881 301.232" stroke="#000000" stroke-width="0.3985" fill="none" /><path transform="matrix(1 0 0 -1 0 841)" d="M386.757 282.453L386.757 301.232" stroke="#000000" stroke-width="0.3985" fill="none" /><path transform="matrix(1 0 0 -1 0 841)" d="M154.521 282.253L220.673 282.253" stroke="#000000" stroke-width="0.3985" fill="none" /><path transform="matrix(1 0 0 -1 0 841)" d="M386.957 282.253L440.755 282.253" stroke="#000000" stroke-width="0.3985" fill="none" /><path transform="matrix(1 0 0 -1 0 841)" d="M220.473 263.673L220.473 282.453" stroke="#000000" stroke-width="0.3985" fill="none" /><path transform="matrix(1 0 0 -1 0 841)" d="M263.005 263.673L263.005 282.453" stroke="#000000" stroke-width="0.3985" fill="none" /><path transform="matrix(1 0 0 -1 0 841)" d="M324.881 263.673L324.881 282.453" stroke="#000000" stroke-width="0.3985" fill="none" /><path transform="matrix(1 0 0 -1 0 841)" d="M386.757 263.673L386.757 282.453" stroke="#000000" stroke-width="0.3985" fill="none" /><path transform="matrix(1 0 0 -1 0 841)" d="M154.521 262.677L440.755 262.677" stroke="#000000" stroke-width="1.9925" fill="none" /></g></g></g></svg>