<svg xmlns="http://www.w3.org/2000/svg" xmlns:xlink="http://www.w3.org/1999/xlink" id="body_13" preserveAspectRatio="xMinYMin meet" viewBox="0 0 793 1121"><defs><clipPath id="1"><path d="M0 841L0 -0.8900146L0 -0.8900146L595.28 -0.8900146L595.28 -0.8900146L595.28 841L595.28 841L0 841z" /></clipPath></defs><g transform="matrix(1.333333 0 0 1.333333 0 0)"><g><g clip-path="url(#1)"><path transform="matrix(1 0 0 -1 0 841)" d="M70.866 787.861L524.409 787.861" stroke="#000000" stroke-width="0.1992" fill="none" /><path transform="matrix(1 0 0 -1 0 841)" d="M226.807 600.912L368.469 600.912" stroke="#000000" stroke-width="1.9925" fill="none" /><path transform="matrix(1 0 0 -1 0 841)" d="M292.759 581.137L292.759 599.916" stroke="#000000" stroke-width="0.3985" fill="none" /><path transform="matrix(1 0 0 -1 0 841)" d="M340.203 581.137L340.203 599.916" stroke="#000000" stroke-width="0.3985" fill="none" /><path transform="matrix(1 0 0 -1 0 841)" d="M226.807 580.539L368.469 580.539" stroke="#000000" stroke-width="1.1955" fill="none" /><path transform="matrix(1 0 0 -1 0 841)" d="M292.759 561.161L292.759 579.941" stroke="#000000" stroke-width="0.3985" fill="none" /><path transform="matrix(1 0 0 -1 0 841)" d="M340.203 561.161L340.203 579.941" stroke="#000000" stroke-width="0.3985" fill="none" /><path transform="matrix(1 0 0 -1 0 841)" d="M226.807 560.962L292.959 560.962" stroke="#000000" stroke-width="0.3985" fill="none" /><path transform="matrix(1 0 0 -1 0 841)" d="M292.959 560.962L340.403 560.962" stroke="#000000" stroke-width="0.3985" fill="none" /><path transform="matrix(1 0 0 -1 0 841)" d="M340.403 560.962L368.469 560.962" stroke="#000000" stroke-width="0.3985" fill="none" /><path transform="matrix(1 0 0 -1 0 841)" d="M292.759 542.382L292.759 561.161" stroke="#000000" stroke-width="0.3985" fill="none" /><path transform="matrix(1 0 0 -1 0 841)" d="M340.203 542.382L340.203 561.161" stroke="#000000" stroke-width="0.3985" fill="none" /><path transform="matrix(1 0 0 -1 0 841)" d="M226.807 542.183L292.959 542.183" stroke="#000000" stroke-width="0.3985" fill="none" /><path transform="matrix(1 0 0 -1 0 841)" d="M340.403 542.183L368.469 542.183" stroke="#000000" stroke-width="0.3985" fill="none" /><path transform="matrix(1 0 0 -1 0 841)" d="M292.759 523.6021L292.759 542.382" stroke="#000000" stroke-width="0.3985" fill="none" /><path transform="matrix(1 0 0 -1 0 841)" d="M340.203 523.6021L340.203 542.382" stroke="#000000" stroke-width="0.3985" fill="none" /><path transform="matrix(1 0 0 -1 0 841)" d="M226.807 523.403L292.959 523.403" stroke="#000000" stroke-width="0.3985" fill="none" /><path transform="matrix(1 0 0 -1 0 841)" d="M292.959 523.403L340.403 523.403" stroke="#000000" stroke-width="0.3985" fill="none" /><path transform="matrix(1 0 0 -1 0 841)" d="M340.403 523.403L368.469 523.403" stroke="#000000" stroke-width="0.3985" fill="none" /><path transform="matrix(1 0 0 -1 0 841)" d="M292.759 504.823L292.759 523.6021" stroke="#000000" stroke-width="0.3985" fill="none" /><path transform="matrix(1 0 0 -1 0 841)" d="M340.203 504.823L340.203 523.6021" stroke="#000000" stroke-width="0.3985" fill="none" /><path transform="matrix(1 0 0 -1 0 841)" d="M226.807 504.623L292.959 504.623" stroke="#000000" stroke-width="0.3985" fill="none" /><path transform="matrix(1 0 0 -1 0 841)" d="M340.403 504.623L368.469 504.623" stroke="#000000" stroke-width="0.3985" fill="none" /><path transform="matrix(1 0 0 -1 0 841)" d="M292.759 486.043L292.759 504.823" stroke="#000000" stroke-width="0.3985" fill="none" /><path transform="matrix(1 0 0 -1 0 841)" d="M340.203 486.043L340.203 504.823" stroke="#000000" stroke-width="0.3985" fill="none" /><path transform="matrix(1 0 0 -1 0 841)" d="M226.807 485.844L292.959 485.844" stroke="#000000" stroke-width="0.3985" fill="none" /><path transform="matrix(1 0 0 -1 0 841)" d="M292.959 485.844L340.403 485.844" stroke="#000000" stroke-width="0.3985" fill="none" /><path transform="matrix(1 0 0 -1 0 841)" d="M340.403 485.844L368.469 485.844" stroke="#000000" stroke-width="0.3985" fill="none" /><path transform="matrix(1 0 0 -1 0 841)" d="M292.759 467.263L292.759 486.043" stroke="#000000" stroke-width="0.3985" fill="none" /><path transform="matrix(1 0 0 -1 0 841)" d="M340.203 467.263L340.203 486.043" stroke="#000000" stroke-width="0.3985" fill="none" /><path transform="matrix(1 0 0 -1 0 841)" d="M226.807 467.064L292.959 467.064" stroke="#000000" stroke-width="0.3985" fill="none" /><path transform="matrix(1 0 0 -1 0 841)" d="M340.403 467.064L368.469 467.064" stroke="#000000" stroke-width="0.3985" fill="none" /><path transform="matrix(1 0 0 -1 0 841)" d="M292.759 448.484L292.759 467.263" stroke="#000000" stroke-width="0.3985" fill="none" /><path transform="matrix(1 0 0 -1 0 841)" d="M340.203 448.484L340.203 467.263" stroke="#000000" stroke-width="0.3985" fill="none" /><path transform="matrix(1 0 0 -1 0 841)" d="M226.807 447.488L368.469 447.488" stroke="#000000" stroke-width="1.9925" fill="none" /></g></g></g></svg>