<svg xmlns="http://www.w3.org/2000/svg" xmlns:xlink="http://www.w3.org/1999/xlink" id="body_4" preserveAspectRatio="xMinYMin meet" viewBox="0 0 793 1121"><defs><clipPath id="1"><path d="M0 841L0 -0.8900146L0 -0.8900146L595.28 -0.8900146L595.28 -0.8900146L595.28 841L595.28 841L0 841z" /></clipPath></defs><g transform="matrix(1.333333 0 0 1.333333 0 0)"><g><g clip-path="url(#1)"><path transform="matrix(1 0 0 -1 0 841)" d="M70.866 787.861L524.409 787.861" stroke="#000000" stroke-width="0.1992" fill="none" /><path transform="matrix(1 0 0 -1 0 841)" d="M79.633 744.274L79.633 763.054" stroke="#0000FF" stroke-width="0.3985" fill="none" /><path transform="matrix(1 0 0 -1 0 841)" d="M527.598 744.274L527.598 763.054" stroke="#0000FF" stroke-width="0.3985" fill="none" /><path transform="matrix(1 0 0 -1 0 841)" d="M79.633 725.495L79.633 744.274" stroke="#0000FF" stroke-width="0.3985" fill="none" /><path transform="matrix(1 0 0 -1 0 841)" d="M527.598 725.495L527.598 744.274" stroke="#0000FF" stroke-width="0.3985" fill="none" /><path transform="matrix(1 0 0 -1 0 841)" d="M79.633 706.715L79.633 725.495" stroke="#0000FF" stroke-width="0.3985" fill="none" /><path transform="matrix(1 0 0 -1 0 841)" d="M527.598 706.715L527.598 725.495" stroke="#0000FF" stroke-width="0.3985" fill="none" /><path transform="matrix(1 0 0 -1 0 841)" d="M79.633 687.935L79.633 706.715" stroke="#0000FF" stroke-width="0.3985" fill="none" /><path transform="matrix(1 0 0 -1 0 841)" d="M527.598 687.935L527.598 706.715" stroke="#0000FF" stroke-width="0.3985" fill="none" /><path transform="matrix(1 0 0 -1 0 841)" d="M79.633 669.156L79.633 687.935" stroke="#0000FF" stroke-width="0.3985" fill="none" /><path transform="matrix(1 0 0 -1 0 841)" d="M527.598 669.156L527.598 687.935" stroke="#0000FF" stroke-width="0.3985" fill="none" /><path transform="matrix(1 0 0 -1 0 841)" d="M79.633 665.768L79.633 669.156" stroke="#0000FF" stroke-width="0.3985" fill="none" /><path transform="matrix(1 0 0 -1 0 841)" d="M79.434 665.968L82.821 665.968" stroke="#0000FF" stroke-width="0.3985" fill="none" /><path transform="matrix(1 0 0 -1 0 841)" d="M82.821 665.968L524.409 665.968" stroke="#0000FF" stroke-width="0.3985" fill="none" /><path transform="matrix(1 0 0 -1 0 841)" d="M524.409 665.968L527.797 665.968" stroke="#0000FF" stroke-width="0.3985" fill="none" /><path transform="matrix(1 0 0 -1 0 841)" d="M527.598 665.768L527.598 669.156" stroke="#0000FF" stroke-width="0.3985" fill="none" /><path transform="matrix(1 0 0 -1 0 841)" d="M79.633 607.825L79.633 611.212" stroke="#0000FF" stroke-width="0.3985" fill="none" /><path transform="matrix(1 0 0 -1 0 841)" d="M79.434 611.013L82.821 611.013" stroke="#0000FF" stroke-width="0.3985" fill="none" /><path transform="matrix(1 0 0 -1 0 841)" d="M82.821 611.013L524.409 611.013" stroke="#0000FF" stroke-width="0.3985" fill="none" /><path transform="matrix(1 0 0 -1 0 841)" d="M524.409 611.013L527.797 611.013" stroke="#0000FF" stroke-width="0.3985" fill="none" /><path transform="matrix(1 0 0 -1 0 841)" d="M527.598 607.825L527.598 611.212" stroke="#0000FF" stroke-width="0.3985" fill="none" /><path transform="matrix(1 0 0 -1 0 841)" d="M79.633 589.045L79.633 607.825" stroke="#0000FF" stroke-width="0.3985" fill="none" /><path transform="matrix(1 0 0 -1 0 841)" d="M527.598 589.045L527.598 607.825" stroke="#0000FF" stroke-width="0.3985" fill="none" /><path transform="matrix(1 0 0 -1 0 841)" d="M79.633 585.658L79.633 589.045" stroke="#0000FF" stroke-width="0.3985" fill="none" /><path transform="matrix(1 0 0 -1 0 841)" d="M79.434 585.857L82.821 585.857" stroke="#0000FF" stroke-width="0.3985" fill="none" /><path transform="matrix(1 0 0 -1 0 841)" d="M82.821 585.857L524.409 585.857" stroke="#0000FF" stroke-width="0.3985" fill="none" /><path transform="matrix(1 0 0 -1 0 841)" d="M524.409 585.857L527.797 585.857" stroke="#0000FF" stroke-width="0.3985" fill="none" /><path transform="matrix(1 0 0 -1 0 841)" d="M527.598 585.658L527.598 589.045" stroke="#0000FF" stroke-width="0.3985" fill="none" /><g transform="matrix(0.2500128 0 0 0.2500128 111.879 322.8854)"><g transform="matrix(1 0 0 1 0 0)"><image x="0" y="0" xlink:href="img_04.png" width="1486" height="278" /></g></g><path transform="matrix(1 0 0 -1 0 841)" d="M79.633 132.381L79.633 135.768" stroke="#0000FF" stroke-width="0.3985" fill="none" /><path transform="matrix(1 0 0 -1 0 841)" d="M79.434 135.569L82.821 135.569" stroke="#0000FF" stroke-width="0.3985" fill="none" /><path transform="matrix(1 0 0 -1 0 841)" d="M82.821 135.569L524.409 135.569" stroke="#0000FF" stroke-width="0.3985" fill="none" /><path transform="matrix(1 0 0 -1 0 841)" d="M524.409 135.569L527.797 135.569" stroke="#0000FF" stroke-width="0.3985" fill="none" /><path transform="matrix(1 0 0 -1 0 841)" d="M527.598 132.381L527.598 135.768" stroke="#0000FF" stroke-width="0.3985" fill="none" /><path transform="matrix(1 0 0 -1 0 841)" d="M79.633 113.601L79.633 132.381" stroke="#0000FF" stroke-width="0.3985" fill="none" /><path transform="matrix(1 0 0 -1 0 841)" d="M527.598 113.601L527.598 132.381" stroke="#0000FF" stroke-width="0.3985" fill="none" /><path transform="matrix(1 0 0 -1 0 841)" d="M79.633 94.82202L79.633 113.601" stroke="#0000FF" stroke-width="0.3985" fill="none" /><path transform="matrix(1 0 0 -1 0 841)" d="M527.598 94.82202L527.598 113.601" stroke="#0000FF" stroke-width="0.3985" fill="none" /><path transform="matrix(1 0 0 -1 0 841)" d="M79.633 76.04199L79.633 94.82202" stroke="#0000FF" stroke-width="0.3985" fill="none" /><path transform="matrix(1 0 0 -1 0 841)" d="M527.598 76.04199L527.598 94.82202" stroke="#0000FF" stroke-width="0.3985" fill="none" /><path transform="matrix(1 0 0 -1 0 841)" d="M79.633 57.26202L79.633 76.04199" stroke="#0000FF" stroke-width="0.3985" fill="none" /><path transform="matrix(1 0 0 -1 0 841)" d="M527.598 57.26202L527.598 76.04199" stroke="#0000FF" stroke-width="0.3985" fill="none" /></g></g></g></svg>