<svg xmlns="http://www.w3.org/2000/svg" xmlns:xlink="http://www.w3.org/1999/xlink" id="body_8" preserveAspectRatio="xMinYMin meet" viewBox="0 0 793 1121"><defs><clipPath id="1"><path d="M0 841L0 -0.8900146L0 -0.8900146L595.28 -0.8900146L595.28 -0.8900146L595.28 841L595.28 841L0 841z" /></clipPath></defs><g transform="matrix(1.333333 0 0 1.333333 0 0)"><g><g clip-path="url(#1)"><path transform="matrix(1 0 0 -1 0 841)" d="M70.866 787.861L524.409 787.861" stroke="#000000" stroke-width="0.1992" fill="none" /><path transform="matrix(1 0 0 -1 0 841)" d="M192.218 731.362L403.057 731.362" stroke="#000000" stroke-width="1.9925" fill="none" /><path transform="matrix(1 0 0 -1 0 841)" d="M258.171 711.586L258.171 730.366" stroke="#000000" stroke-width="0.3985" fill="none" /><path transform="matrix(1 0 0 -1 0 841)" d="M295.878 711.586L295.878 730.366" stroke="#000000" stroke-width="0.3985" fill="none" /><path transform="matrix(1 0 0 -1 0 841)" d="M192.218 710.989L403.057 710.989" stroke="#000000" stroke-width="1.1955" fill="none" /><path transform="matrix(1 0 0 -1 0 841)" d="M258.171 691.611L258.171 710.391" stroke="#000000" stroke-width="0.3985" fill="none" /><path transform="matrix(1 0 0 -1 0 841)" d="M295.878 691.611L295.878 710.391" stroke="#000000" stroke-width="0.3985" fill="none" /><path transform="matrix(1 0 0 -1 0 841)" d="M192.218 691.412L258.37 691.412" stroke="#000000" stroke-width="0.3985" fill="none" /><path transform="matrix(1 0 0 -1 0 841)" d="M258.37 691.412L296.078 691.412" stroke="#000000" stroke-width="0.3985" fill="none" /><path transform="matrix(1 0 0 -1 0 841)" d="M258.171 672.832L258.171 691.611" stroke="#000000" stroke-width="0.3985" fill="none" /><path transform="matrix(1 0 0 -1 0 841)" d="M295.878 672.832L295.878 691.611" stroke="#000000" stroke-width="0.3985" fill="none" /><path transform="matrix(1 0 0 -1 0 841)" d="M192.218 672.632L258.37 672.632" stroke="#000000" stroke-width="0.3985" fill="none" /><path transform="matrix(1 0 0 -1 0 841)" d="M258.37 672.632L296.078 672.632" stroke="#000000" stroke-width="0.3985" fill="none" /><path transform="matrix(1 0 0 -1 0 841)" d="M258.171 654.052L258.171 672.832" stroke="#000000" stroke-width="0.3985" fill="none" /><path transform="matrix(1 0 0 -1 0 841)" d="M295.878 654.052L295.878 672.832" stroke="#000000" stroke-width="0.3985" fill="none" /><path transform="matrix(1 0 0 -1 0 841)" d="M192.218 653.853L258.37 653.853" stroke="#000000" stroke-width="0.3985" fill="none" /><path transform="matrix(1 0 0 -1 0 841)" d="M258.37 653.853L296.078 653.853" stroke="#000000" stroke-width="0.3985" fill="none" /><path transform="matrix(1 0 0 -1 0 841)" d="M296.078 653.853L403.057 653.853" stroke="#000000" stroke-width="0.3985" fill="none" /><path transform="matrix(1 0 0 -1 0 841)" d="M258.171 635.272L258.171 654.052" stroke="#000000" stroke-width="0.3985" fill="none" /><path transform="matrix(1 0 0 -1 0 841)" d="M295.878 635.272L295.878 654.052" stroke="#000000" stroke-width="0.3985" fill="none" /><path transform="matrix(1 0 0 -1 0 841)" d="M192.218 635.073L258.37 635.073" stroke="#000000" stroke-width="0.3985" fill="none" /><path transform="matrix(1 0 0 -1 0 841)" d="M296.078 635.073L403.057 635.073" stroke="#000000" stroke-width="0.3985" fill="none" /><path transform="matrix(1 0 0 -1 0 841)" d="M258.171 616.493L258.171 635.272" stroke="#000000" stroke-width="0.3985" fill="none" /><path transform="matrix(1 0 0 -1 0 841)" d="M295.878 616.493L295.878 635.272" stroke="#000000" stroke-width="0.3985" fill="none" /><path transform="matrix(1 0 0 -1 0 841)" d="M192.218 615.497L403.057 615.497" stroke="#000000" stroke-width="1.9925" fill="none" /></g></g></g></svg>